<svg width="19" height="19" viewBox="0 0 19 19" fill="none" xmlns="http://www.w3.org/2000/svg">
<path d="M15.2051 10.8152C14.8109 10.4047 14.3354 10.1852 13.8314 10.1852C13.3315 10.1852 12.8519 10.4006 12.4414 10.8111L11.1571 12.0914C11.0514 12.0345 10.9457 11.9817 10.8441 11.9288C10.6978 11.8557 10.5596 11.7866 10.4417 11.7134C9.2387 10.9493 8.14539 9.95355 7.09679 8.66516C6.58875 8.02299 6.24735 7.48244 5.99942 6.93375C6.3327 6.62893 6.64159 6.31191 6.94235 6.00708C7.05615 5.89328 7.16995 5.77542 7.28375 5.66162C8.13726 4.80811 8.13726 3.70261 7.28375 2.8491L6.17419 1.73953C6.04819 1.61354 5.91814 1.48348 5.79621 1.35342C5.55235 1.10143 5.29629 0.841317 5.03211 0.597457C4.63787 0.207281 4.16641 0 3.67056 0C3.17471 0 2.69512 0.207281 2.28869 0.597457C2.28462 0.601521 2.28462 0.601521 2.28056 0.605586L0.898684 1.99965C0.37845 2.51989 0.0817535 3.15392 0.0167241 3.88957C-0.0808199 5.07635 0.268713 6.18185 0.536959 6.9053C1.19538 8.68142 2.17895 10.3275 3.64617 12.0914C5.42635 14.217 7.56826 15.8956 10.015 17.0783C10.9498 17.5213 12.1975 18.0456 13.5916 18.1351C13.6769 18.1391 13.7664 18.1432 13.8477 18.1432C14.7865 18.1432 15.575 17.8058 16.1928 17.1352C16.1968 17.1271 16.205 17.123 16.209 17.1149C16.4204 16.8589 16.6642 16.6272 16.9203 16.3793C17.0951 16.2126 17.2739 16.0379 17.4487 15.855C17.851 15.4363 18.0624 14.9486 18.0624 14.4487C18.0624 13.9447 17.847 13.4611 17.4365 13.0546L15.2051 10.8152ZM16.6602 15.0949C16.6561 15.0949 16.6561 15.099 16.6602 15.0949C16.5017 15.2656 16.3391 15.4201 16.1643 15.5908C15.9001 15.8428 15.6319 16.107 15.3799 16.4037C14.9694 16.8426 14.4858 17.0499 13.8517 17.0499C13.7908 17.0499 13.7257 17.0499 13.6648 17.0458C12.4576 16.9686 11.3359 16.4971 10.4946 16.0948C8.19416 14.9811 6.17419 13.4001 4.49562 11.3964C3.10968 9.72595 2.18301 8.1815 1.5693 6.52326C1.19132 5.51124 1.05313 4.72276 1.11409 3.97898C1.15474 3.50346 1.33763 3.10922 1.67497 2.77188L3.06091 1.38594C3.26006 1.19898 3.47141 1.09737 3.67869 1.09737C3.93474 1.09737 4.14202 1.25181 4.27208 1.38187C4.27615 1.38594 4.28021 1.39 4.28427 1.39407C4.5322 1.62573 4.76793 1.86553 5.01585 2.12158C5.14185 2.25164 5.27191 2.3817 5.40197 2.51582L6.51153 3.62539C6.94235 4.0562 6.94235 4.45451 6.51153 4.88533C6.39366 5.00319 6.27986 5.12106 6.162 5.23486C5.82059 5.58439 5.49545 5.90954 5.14185 6.22656C5.13372 6.23469 5.12559 6.23875 5.12153 6.24688C4.77199 6.59641 4.83702 6.93782 4.91018 7.16948C4.91425 7.18168 4.91831 7.19387 4.92237 7.20606C5.21094 7.90513 5.61738 8.56355 6.23515 9.34797L6.23922 9.35203C7.36097 10.7339 8.5437 11.811 9.84835 12.636C10.015 12.7417 10.1857 12.827 10.3483 12.9083C10.4946 12.9815 10.6328 13.0506 10.7506 13.1237C10.7669 13.1319 10.7831 13.1441 10.7994 13.1522C10.9376 13.2213 11.0676 13.2538 11.2018 13.2538C11.5391 13.2538 11.7505 13.0424 11.8195 12.9734L13.2095 11.5834C13.3477 11.4452 13.5672 11.2785 13.8233 11.2785C14.0753 11.2785 14.2825 11.437 14.4085 11.5752C14.4126 11.5793 14.4126 11.5793 14.4167 11.5834L16.6561 13.8228C17.0747 14.2374 17.0747 14.6641 16.6602 15.0949Z" fill="white"/>
</svg>
