<svg width="48" height="44" viewBox="0 0 48 44" fill="none" xmlns="http://www.w3.org/2000/svg">
<path d="M47.9912 14.4C47.912 13.0312 46.284 11.9616 43.028 11.1456C43.1376 10.9056 43.1992 10.656 43.2 10.3968V4.8H43.1864C42.9 0.1376 23.7944 0 21.6 0C19.4056 0 0.3 0.1376 0.0136 4.8H0V4.904V10.3992C0.004 11.9192 1.9656 13.1088 4.884 13.9944C4.844 14.1272 4.82 14.2624 4.812 14.4H4.8V14.504V19.9896C1.656 20.7992 0.0856 21.8536 0.008 23.2H0V23.304V28.7992C0.0024 29.8576 0.9568 30.7552 2.5184 31.5032C2.4592 31.6656 2.4224 31.8312 2.412 32.0008H2.4V32.1048V37.6C2.4064 40.2608 8.3976 41.9128 15.0544 42.684C15.1032 42.6936 15.148 42.7136 15.2 42.7136C15.2152 42.7136 15.228 42.7056 15.2432 42.7048C16.5264 42.8496 17.8304 42.9624 19.1208 43.0432C19.148 43.0464 19.172 43.0592 19.2 43.0592C19.2152 43.0592 19.2272 43.0512 19.2416 43.0504C20.88 43.1496 22.492 43.2 24 43.2C25.508 43.2 27.12 43.1496 28.7584 43.0496C28.7728 43.0504 28.7856 43.0584 28.8 43.0584C28.828 43.0584 28.852 43.0448 28.8792 43.0424C30.1696 42.9616 31.4736 42.8496 32.7568 42.704C32.772 42.704 32.7848 42.712 32.8 42.712C32.852 42.712 32.8968 42.692 32.9456 42.6824C39.6024 41.9112 45.5928 40.2584 45.6 37.5968V32H45.5872C45.5312 31.0192 44.6952 30.2008 43.044 29.5168C43.1448 29.2856 43.2 29.0456 43.2 28.7968V23.568C46.072 22.6848 47.996 21.5032 48 19.9968V14.4H47.9912ZM41.5136 29.0568L41.2408 29.296C40.8208 29.6664 40.1208 30.04 39.2 30.4V26.5856C40.1512 26.2544 40.9608 25.8872 41.6 25.4848V28.7952C41.6 28.8776 41.5696 28.9656 41.5136 29.0568ZM23.6208 32.7744C23.504 32.7776 23.3864 32.7792 23.2688 32.7816C22.9832 32.7872 22.6904 32.7888 22.4008 32.7912V28.7952C22.6208 28.7928 22.8408 28.7896 23.0608 28.7856C23.1032 28.7848 23.1456 28.784 23.188 28.7832C23.9936 28.768 24.7992 28.7432 25.6008 28.7064V32.7008C25.4296 32.7096 25.2576 32.7176 25.084 32.7248C24.6024 32.7464 24.116 32.7624 23.6208 32.7744ZM20.1272 32.7856C19.7608 32.7792 19.396 32.7704 19.0336 32.7592C18.9888 32.7576 18.944 32.756 18.8992 32.7544C18.4632 32.74 18.0304 32.7216 17.6008 32.7008V28.7072C18.4024 28.7448 19.208 28.7696 20.0136 28.784C20.056 28.7848 20.0984 28.7856 20.14 28.7864C20.36 28.7904 20.58 28.7936 20.8 28.796V32.7944C20.6448 32.7928 20.4896 32.7928 20.3352 32.7904C20.2648 32.7888 20.1968 32.7864 20.1272 32.7856ZM5.6776 30.9616C5.6512 30.9536 5.6264 30.9464 5.6 30.9392V27.0744C6.3472 27.276 7.1504 27.46 8 27.6272V31.532C7.2656 31.376 6.588 31.212 5.9712 31.044C5.8736 31.016 5.7728 30.9896 5.6776 30.9616ZM22.54 37.5864C22.76 37.5904 22.98 37.5936 23.2 37.596V41.5952C22.0944 41.5848 21.0272 41.5528 20 41.5024V37.508C20.8016 37.5456 21.6072 37.5704 22.4128 37.5848C22.4552 37.5848 22.4976 37.5856 22.54 37.5864ZM25.5872 37.584C26.3928 37.5688 27.1984 37.544 28 37.5072V41.5016C26.9728 41.552 25.9056 41.584 24.8 41.5944V37.5952C25.02 37.5928 25.24 37.5896 25.46 37.5856C25.5024 37.5856 25.5448 37.5848 25.5872 37.584ZM32 37.2224V41.1952C31.2312 41.276 30.4312 41.3472 29.6 41.4056V37.416C30.4112 37.3632 31.2128 37.2984 32 37.2224ZM33.6 37.0496C34.4248 36.9504 35.2256 36.8376 36 36.712V40.64C35.2464 40.7728 34.4456 40.8952 33.6 41.0064V37.0496ZM37.6 36.4264C38.4496 36.2592 39.2528 36.0752 40 35.8736V39.7384C39.2872 39.944 38.4848 40.1432 37.6 40.3312V36.4264ZM10.4 36.4264V40.3312C9.5152 40.1432 8.7128 39.944 8 39.7384V35.8736C8.7472 36.0752 9.5504 36.26 10.4 36.4264ZM12 36.7128C12.7744 36.8384 13.5752 36.9512 14.4 37.0504V41.0072C13.5544 40.896 12.7536 40.7736 12 40.6408V36.7128ZM16 37.2224C16.7872 37.2984 17.5888 37.3632 18.4 37.4168V41.4064C17.5688 41.348 16.7688 41.2768 16 41.196V37.2224ZM14.0152 32.4384C13.9336 32.4304 13.8528 32.4216 13.772 32.4136C13.7144 32.408 13.6576 32.4008 13.6 32.3952V28.4232C14.3872 28.4992 15.1888 28.564 16 28.6176V32.604C15.328 32.556 14.664 32.5016 14.0152 32.4384ZM12 28.2496V32.2064C11.1544 32.0952 10.3536 31.9728 9.6 31.84V27.912C10.3744 28.0376 11.1752 28.1512 12 28.2496ZM27.7328 32.5664C27.5568 32.58 27.3792 32.5936 27.2 32.6064V28.6168C28.0112 28.5632 28.8128 28.4992 29.6 28.4224V32.3952C29.1056 32.4472 28.6 32.496 28.0808 32.5384C27.9648 32.5488 27.8488 32.5576 27.7328 32.5664ZM31.2 32.2064V28.2496C32.0248 28.1504 32.8256 28.0376 33.6 27.912V31.84C32.8464 31.9728 32.0456 32.096 31.2 32.2064ZM35.2 27.6264C36.0496 27.4592 36.8528 27.2752 37.6 27.0736V30.9384C36.8872 31.144 36.0848 31.3432 35.2 31.5312V27.6264ZM24.26 23.972C23.6584 23.9568 23.0704 23.9336 22.4928 23.9056C22.4616 23.904 22.4304 23.9024 22.4 23.9016V19.9072C23.2016 19.9448 24.0072 19.9696 24.8128 19.984C24.8552 19.9848 24.8976 19.9856 24.9392 19.9864C25.1592 19.9904 25.3792 19.9936 25.5992 19.996V23.9904C25.2096 23.9864 24.8168 23.9848 24.4368 23.976C24.3784 23.9744 24.3184 23.9736 24.26 23.972ZM5.6 12.5392V8.6744C6.3472 8.876 7.1504 9.06 8 9.2272V13.132C7.9016 13.1112 7.8 13.0904 7.704 13.0696C7.2784 12.976 6.8632 12.8784 6.4664 12.7752C6.164 12.6976 5.8768 12.6184 5.6 12.5392ZM20.14 10.3864C20.36 10.3904 20.58 10.3936 20.8 10.396V14.3904C19.7232 14.38 18.6528 14.352 17.6 14.2992V10.308C18.4016 10.3456 19.2072 10.3704 20.0128 10.3848C20.0552 10.3848 20.0976 10.3856 20.14 10.3864ZM23.1872 10.384C23.9928 10.3688 24.7984 10.344 25.6 10.3072V14.2984C25.464 14.3048 25.3336 14.3144 25.1968 14.3208C25.1856 14.3216 25.1744 14.3216 25.1624 14.3224C24.6256 14.3464 24.0784 14.364 23.524 14.3768C23.4376 14.3792 23.3512 14.38 23.2648 14.3824C22.98 14.388 22.6888 14.3888 22.4 14.392V10.396C22.62 10.3936 22.84 10.3904 23.06 10.3864C23.1024 10.3856 23.1448 10.3848 23.1872 10.384ZM41.4168 10.7856L41.3944 10.7808L41.1032 11.0072C40.6808 11.336 40.032 11.6688 39.2 11.9904V8.1848C40.1512 7.8536 40.9608 7.4864 41.6 7.084V10.3944C41.6 10.516 41.536 10.6472 41.4168 10.7856ZM31.2 13.8016V9.8496C32.0248 9.7504 32.8256 9.6376 33.6 9.512V13.4336C32.8416 13.568 32.0432 13.6912 31.2 13.8016ZM35.2 13.1256V9.2272C36.0496 9.06 36.8528 8.876 37.6 8.6744V12.5304C36.8832 12.7392 36.076 12.9384 35.2 13.1256ZM29.6 10.0224V13.9904C28.8272 14.072 28.0272 14.1432 27.2 14.2024V10.2168C28.0112 10.1632 28.8128 10.0984 29.6 10.0224ZM13.6 13.992V10.0224C14.3872 10.0984 15.1888 10.1632 16 10.2168V14.1992C15.1856 14.1408 14.3824 14.0744 13.6 13.992ZM12 9.8496V13.8024C11.8416 13.7816 11.6768 13.7648 11.52 13.7432C11.4176 13.7288 11.32 13.7136 11.2192 13.6992C10.7568 13.6328 10.3048 13.5616 9.8616 13.4872C9.7728 13.472 9.6872 13.456 9.6 13.4408V9.5128C10.3744 9.6376 11.1752 9.7512 12 9.8496ZM20.6016 23.7912C20.4936 23.7832 20.3848 23.7752 20.2776 23.7672C19.7656 23.7272 19.2656 23.6832 18.7776 23.6344C18.6728 23.624 18.568 23.6128 18.464 23.6024C18.4424 23.6 18.4216 23.5968 18.4 23.5952V19.6224C19.1872 19.6984 19.9888 19.7632 20.8 19.8168V23.804C20.7352 23.7992 20.6664 23.796 20.6016 23.7912ZM15.316 23.1936C14.9992 23.1432 14.7016 23.0888 14.4 23.036V19.1128C15.1744 19.2384 15.9752 19.3512 16.8 19.4504V23.4072C16.3104 23.3424 15.8312 23.2752 15.3712 23.2032C15.3528 23.1992 15.3344 23.196 15.316 23.1936ZM12.8 18.8264V22.7248C11.916 22.5352 11.1144 22.3336 10.4 22.124V18.2736C11.1472 18.4752 11.9504 18.66 12.8 18.8264ZM8.8 17.7848V21.5856C7.5424 21.1 6.7312 20.604 6.4672 20.1624L6.4136 20.0728C6.4088 20.048 6.4008 20.0216 6.4 19.9968V16.684C7.0392 17.0864 7.8488 17.4536 8.8 17.7848ZM27.9872 19.984C28.7928 19.9688 29.5984 19.944 30.4 19.9072V23.8976C29.3488 23.9496 28.28 23.9784 27.2 23.9896V19.996C27.42 19.9936 27.64 19.9904 27.86 19.9864C27.9024 19.9856 27.9448 19.9848 27.9872 19.984ZM38.3256 23.0536C37.9744 23.1144 37.62 23.1744 37.256 23.2296C37.0472 23.2616 36.8336 23.292 36.6192 23.3224C36.4168 23.3512 36.2064 23.376 36.0008 23.4024V19.4496C36.8256 19.3504 37.6264 19.2376 38.4008 19.112V23.04C38.3752 23.0448 38.3504 23.0496 38.3256 23.0536ZM32.9088 23.7368C32.6104 23.7616 32.3024 23.7776 32 23.7992V19.8168C32.8112 19.7632 33.6128 19.6992 34.4 19.6224V23.5912C33.9352 23.64 33.4712 23.6888 32.9936 23.7288C32.9648 23.7312 32.9376 23.7344 32.9088 23.7368ZM42.0512 22.2368C41.6528 22.348 41.2312 22.452 40.8008 22.5536C40.6016 22.6 40.3984 22.6464 40.1904 22.6912C40.1288 22.7048 40.0632 22.7168 40.0008 22.7304V18.8272C40.8504 18.66 41.6536 18.476 42.4008 18.2744V22.1392C42.2856 22.1712 42.1696 22.204 42.0512 22.2368ZM46.3912 14.452C46.3176 14.9952 45.0864 15.7176 42.8888 16.3968C40.0584 17.2712 35.6296 18.072 30.0168 18.32C29.7296 18.332 29.4432 18.344 29.1504 18.3536C28.9112 18.3616 28.6712 18.3688 28.4272 18.3752C27.7648 18.3896 27.0928 18.4 26.4 18.4C25.7072 18.4 25.0352 18.3896 24.3728 18.3744C24.1296 18.3688 23.8896 18.3608 23.6496 18.3528C23.356 18.344 23.0696 18.3312 22.7832 18.3192C17.1704 18.0712 12.7408 17.2704 9.9112 16.396C7.7312 15.7224 6.5024 15.0056 6.4112 14.4648C6.4152 14.4496 6.4152 14.4368 6.4248 14.4176C6.4792 14.4312 6.54 14.4424 6.5952 14.456C6.908 14.5304 7.2288 14.6024 7.5552 14.6712C9.1448 15.0136 10.9064 15.2944 12.7832 15.5088C12.7896 15.5088 12.7944 15.512 12.8 15.512C12.8016 15.512 12.8032 15.5112 12.804 15.5112C14.0824 15.6568 15.4088 15.7712 16.7704 15.852C16.7808 15.852 16.7896 15.8576 16.8 15.8576C16.8056 15.8576 16.8096 15.8544 16.8152 15.8544C17.7952 15.912 18.788 15.9544 19.7928 15.9768C20.408 15.992 21.012 16 21.6 16C22.02 16 22.4504 15.9952 22.8848 15.9872C28.6976 15.8976 34.0848 15.2064 37.8336 14.1352C38.0064 14.0864 38.1752 14.036 38.3416 13.9856C38.4432 13.9544 38.5472 13.924 38.6456 13.8928C38.9352 13.8 39.2128 13.7048 39.4808 13.6056C39.5272 13.588 39.5712 13.5704 39.6176 13.5528C39.844 13.4672 40.0616 13.3784 40.2696 13.288C40.3296 13.2616 40.3912 13.236 40.4496 13.2096C40.6712 13.1096 40.8856 13.0072 41.084 12.9008C41.1736 12.8536 41.2512 12.8048 41.3352 12.7568C41.4312 12.7016 41.5272 12.6456 41.616 12.5888C41.6664 12.5568 41.7264 12.5264 41.7744 12.4944C45.356 13.2712 46.3 14.1208 46.3912 14.452ZM21.6 1.6C34.7912 1.6 41.4632 3.6768 41.588 4.8688C41.4912 5.4096 40.2632 6.124 38.0888 6.796C35.2584 7.6704 30.8296 8.4712 25.2168 8.7192C24.9296 8.7312 24.6432 8.7432 24.3504 8.7528C24.1112 8.7608 23.8712 8.768 23.6272 8.7744C22.9648 8.7896 22.2928 8.8 21.6 8.8C20.9072 8.8 20.2352 8.7896 19.5728 8.7744C19.3296 8.7688 19.0896 8.7608 18.8496 8.7528C18.556 8.744 18.2696 8.7312 17.9832 8.7192C12.3704 8.4712 7.9408 7.6704 5.1112 6.796C2.936 6.124 1.7088 5.4096 1.612 4.8688C1.7368 3.6768 8.4088 1.6 21.6 1.6ZM1.6 10.3968V7.084C2.2392 7.4864 3.0488 7.8536 4 8.1848V12.0152C2.444 11.432 1.6016 10.8472 1.6 10.3968ZM5.4752 21.468C5.4872 21.4808 5.5056 21.492 5.5176 21.5048C6.6128 22.6104 8.8808 23.4792 11.704 24.1272C11.7688 24.1424 11.8376 24.1568 11.9032 24.172C12.1104 24.2184 12.3208 24.264 12.5336 24.308C15.1264 24.86 18.2216 25.2592 21.5936 25.4568C21.596 25.4568 21.5976 25.4576 21.5992 25.4576C21.6008 25.4576 21.6016 25.4568 21.6024 25.4568C22.6856 25.52 23.7936 25.564 24.9248 25.5832C25.4256 25.5936 25.9184 25.6 26.4 25.6C26.952 25.6 27.5184 25.5936 28.0944 25.58C29.1408 25.5584 30.172 25.5152 31.1888 25.456C31.1928 25.456 31.196 25.4584 31.2 25.4584C31.2072 25.4584 31.2128 25.4544 31.22 25.4544C34.6008 25.2552 37.7728 24.852 40.4552 24.272C39.8744 24.576 39.0792 24.8904 38.0888 25.1968C35.1008 26.12 30.3288 26.9608 24.264 27.156C24.084 27.1616 23.9064 27.168 23.724 27.1728C23.528 27.1776 23.3288 27.1808 23.1296 27.1848C22.6264 27.1928 22.12 27.2 21.6 27.2C20.9072 27.2 20.2352 27.1896 19.5728 27.1744C19.3296 27.1688 19.0896 27.1608 18.8496 27.1528C18.556 27.144 18.2696 27.1312 17.9832 27.1192C12.3704 26.8712 7.9408 26.0704 5.1112 25.196C2.9112 24.516 1.68 23.7928 1.6088 23.2496C1.6976 22.9488 2.5064 22.196 5.4752 21.468ZM1.6 28.7968V25.484C2.2392 25.8864 3.0488 26.2536 4 26.5848V30.4L3.5432 30.2224L3.5336 30.232C2.2776 29.7112 1.6016 29.2 1.6 28.7968ZM4 37.5968V34.284C4.6392 34.6864 5.4488 35.0536 6.4 35.3848V39.2152C4.844 38.632 4.0016 38.0472 4 37.5968ZM41.6 39.2152V35.3856C42.5512 35.0544 43.3608 34.6872 44 34.2848V37.5952C43.9992 38.0456 43.156 38.6312 41.6 39.2152ZM43.9896 32.0616C43.9024 32.6032 42.6736 33.3216 40.4888 33.9968C37.6584 34.8712 33.2296 35.672 27.6168 35.92C27.3296 35.932 27.0432 35.944 26.7504 35.9536C26.5112 35.9616 26.2712 35.9688 26.0272 35.9752C25.3648 35.9896 24.6928 36 24 36C23.3072 36 22.6344 35.9896 21.9712 35.9744C21.7304 35.9688 21.4928 35.9608 21.2552 35.9528C20.96 35.9432 20.672 35.9312 20.3832 35.9192C14.7704 35.6712 10.3416 34.8704 7.5112 33.996C5.3952 33.3424 4.1728 32.648 4.0192 32.112C4.2576 32.1952 4.5048 32.276 4.7584 32.3552C4.784 32.3632 4.8096 32.3712 4.8352 32.3784C5.0512 32.4448 5.272 32.5088 5.4984 32.5712C5.584 32.5952 5.6704 32.6192 5.7576 32.6424C5.8856 32.6768 6.0168 32.7096 6.148 32.7432C9.0616 33.4896 12.7808 34.0184 16.796 34.256C16.7976 34.256 16.7984 34.2568 16.8 34.2568C16.8008 34.2568 16.8016 34.256 16.8024 34.256C18.0424 34.3296 19.3088 34.3752 20.5888 34.3904C20.9296 34.3968 21.268 34.4 21.6 34.4C22.0408 34.4 22.492 34.3944 22.9488 34.3864C24.116 34.3672 25.268 34.324 26.3944 34.2568C26.3968 34.2568 26.3984 34.2584 26.4008 34.2584C26.4048 34.2584 26.4072 34.256 26.4112 34.256C27.7832 34.1736 29.1112 34.056 30.3872 33.9096C30.392 33.9096 30.396 33.912 30.4008 33.912C30.4184 33.912 30.4328 33.9032 30.4504 33.9016C31.8712 33.7376 33.2184 33.536 34.4688 33.3016C34.7264 33.2544 34.98 33.2056 35.2312 33.1552C35.2872 33.144 35.3432 33.1328 35.3992 33.1208C37.7616 32.636 39.8064 32.008 41.2096 31.2296C41.2864 31.188 41.3584 31.1448 41.4312 31.1024C41.52 31.0496 41.6048 30.996 41.6872 30.9416C41.764 30.892 41.8528 30.844 41.9232 30.7936C43.5024 31.3568 43.9376 31.8608 43.9896 32.0616ZM44 21.6152V17.7856C44.9512 17.4544 45.7608 17.0872 46.4 16.6848V19.9952C46.3992 20.4456 45.556 21.0312 44 21.6152Z" fill="#C757AB"/>
</svg>
