<svg width="48" height="47" viewBox="0 0 48 47" fill="none" xmlns="http://www.w3.org/2000/svg">
<path d="M47.9074 25.2551C47.4765 20.9203 45.5398 16.8335 42.4541 13.7477C39.8171 11.1108 36.5894 9.4162 33.1932 8.66272V6.28069C34.5803 5.93559 35.6114 4.67998 35.6114 3.18755C35.6114 1.4299 34.1815 0 32.4238 0H25.6737C23.9161 0 22.4862 1.4299 22.4862 3.18755C22.4862 4.67988 23.5173 5.93549 24.9043 6.28069V8.66938C21.5185 9.42605 18.3015 11.1183 15.672 13.7478C15.0965 14.3232 14.5659 14.9269 14.0801 15.5543C14.0566 15.5525 14.0331 15.5507 14.0091 15.5507H7.32827C6.81057 15.5507 6.39075 15.9705 6.39075 16.4882C6.39075 17.006 6.81057 17.4258 7.32827 17.4258H12.8045C12.1171 18.5766 11.5628 19.7851 11.1409 21.0292H0.937514C0.419819 21.0292 0 21.4489 0 21.9667C0 22.4845 0.419819 22.9042 0.937514 22.9042H10.6112C10.341 24.0903 10.1859 25.2973 10.1459 26.5077H6.00009C5.48239 26.5077 5.06258 26.9275 5.06258 27.4453C5.06258 27.963 5.48239 28.3828 6.00009 28.3828H10.1758C10.2549 29.5963 10.45 30.8034 10.7612 31.9863H4.68757C4.16988 31.9863 3.75006 32.406 3.75006 32.9238C3.75006 33.4416 4.16988 33.8613 4.68757 33.8613H11.3595C12.2792 36.2943 13.7165 38.5746 15.672 40.53C18.7607 43.6188 22.8516 45.5559 27.191 45.9846C27.8103 46.0457 28.4301 46.076 29.0491 46.076C32.7074 46.076 36.3193 45.0173 39.384 43.0215C39.8179 42.7389 39.9406 42.1581 39.6581 41.7243C39.3755 41.2904 38.7947 41.1676 38.3608 41.4502C31.6523 45.8188 22.6678 44.8742 16.9978 39.2042C10.345 32.5514 10.345 21.7266 16.9978 15.0737C23.6505 8.42103 34.4753 8.42103 41.1282 15.0737C46.7907 20.7363 47.7404 29.7131 43.3863 36.4184C43.1043 36.8526 43.2277 37.4333 43.6619 37.7153C44.0964 37.9973 44.6769 37.8738 44.9588 37.4395C47.2851 33.8568 48.3323 29.5297 47.9074 25.2551ZM24.3612 3.18764C24.3612 2.46388 24.95 1.87512 25.6737 1.87512H32.4238C33.1476 1.87512 33.7364 2.46388 33.7364 3.18764C33.7364 3.9114 33.1476 4.50016 32.4238 4.50016H32.2556H25.8418H25.6737C24.95 4.50016 24.3612 3.91131 24.3612 3.18764ZM26.7793 8.34706V6.37519H31.3181V8.34369C29.811 8.16444 28.2862 8.16556 26.7793 8.34706Z" fill="#C757AB"/>
<path d="M41.791 38.9292C41.5435 38.9292 41.3026 39.0295 41.1283 39.2038C40.953 39.3782 40.8535 39.6201 40.8535 39.8667C40.8535 40.1132 40.953 40.3551 41.1283 40.5295C41.3026 40.7048 41.5436 40.8042 41.791 40.8042C42.0376 40.8042 42.2785 40.7048 42.4538 40.5295C42.6282 40.3551 42.7285 40.1132 42.7285 39.8667C42.7285 39.6201 42.6283 39.3782 42.4538 39.2038C42.2785 39.0295 42.0375 38.9292 41.791 38.9292Z" fill="#C757AB"/>
<path d="M29.0631 12.5952C21.0438 12.5952 14.5195 19.1194 14.5195 27.1388C14.5195 35.1582 21.0438 41.6824 29.0631 41.6824C37.0824 41.6824 43.6067 35.1582 43.6067 27.1388C43.6067 19.1194 37.0824 12.5952 29.0631 12.5952ZM29.0631 39.8073C22.0776 39.8073 16.3946 34.1242 16.3946 27.1388C16.3946 20.1534 22.0776 14.4703 29.0631 14.4703C36.0486 14.4703 41.7316 20.1534 41.7316 27.1388C41.7316 34.1242 36.0486 39.8073 29.0631 39.8073Z" fill="#C757AB"/>
<path d="M34.9935 19.8826L30.35 24.526C29.9617 24.334 29.5249 24.2256 29.0632 24.2256C28.6014 24.2256 28.1647 24.334 27.7763 24.526L25.6982 22.4479C25.332 22.0818 24.7385 22.0818 24.3722 22.4479C24.0061 22.814 24.0061 23.4076 24.3722 23.7737L26.4504 25.8519C26.2583 26.2402 26.1499 26.677 26.1499 27.1387C26.1499 28.745 27.4567 30.0519 29.0632 30.0519C30.6696 30.0519 31.9764 28.745 31.9764 27.1387C31.9764 26.677 31.8679 26.2402 31.6759 25.8519L36.1831 21.3447L36.3193 21.2085C36.6854 20.8424 36.6854 20.2487 36.3193 19.8826C35.9532 19.5165 35.3598 19.5165 34.9935 19.8826ZM29.0632 28.177C28.4907 28.177 28.025 27.7112 28.025 27.1388C28.025 26.5664 28.4907 26.1006 29.0632 26.1006C29.6356 26.1006 30.1014 26.5664 30.1014 27.1388C30.1014 27.7112 29.6356 28.177 29.0632 28.177Z" fill="#C757AB"/>
<path d="M39.0873 26.2127H38.2187C37.7011 26.2127 37.2812 26.6324 37.2812 27.1502C37.2812 27.668 37.7011 28.0877 38.2187 28.0877H39.0873C39.605 28.0877 40.0248 27.668 40.0248 27.1502C40.0248 26.6324 39.605 26.2127 39.0873 26.2127Z" fill="#C757AB"/>
<path d="M19.9076 26.1898H19.0391C18.5214 26.1898 18.1016 26.6096 18.1016 27.1273C18.1016 27.6451 18.5214 28.0648 19.0391 28.0648H19.9076C20.4252 28.0648 20.8451 27.6451 20.8451 27.1273C20.8451 26.6096 20.4252 26.1898 19.9076 26.1898Z" fill="#C757AB"/>
<path d="M29.0742 18.921C29.5919 18.921 30.0117 18.5013 30.0117 17.9835V17.115C30.0117 16.5972 29.5919 16.1775 29.0742 16.1775C28.5565 16.1775 28.1367 16.5972 28.1367 17.115V17.9835C28.1367 18.5013 28.5565 18.921 29.0742 18.921Z" fill="#C757AB"/>
<path d="M29.0518 35.3566C28.5341 35.3566 28.1143 35.7763 28.1143 36.2941V37.1626C28.1143 37.6804 28.5341 38.1001 29.0518 38.1001C29.5694 38.1001 29.9893 37.6804 29.9893 37.1626V36.2941C29.9893 35.7763 29.5694 35.3566 29.0518 35.3566Z" fill="#C757AB"/>
<path d="M0.937499 31.9859C0.690937 31.9859 0.449062 32.0863 0.274687 32.2606C0.100312 32.435 0 32.6769 0 32.9234C0 33.1709 0.100219 33.4119 0.274687 33.5863C0.449156 33.7606 0.690937 33.8609 0.937499 33.8609C1.18406 33.8609 1.42594 33.7606 1.60022 33.5863C1.77459 33.4119 1.875 33.17 1.875 32.9234C1.875 32.6769 1.77469 32.435 1.60022 32.2606C1.42594 32.0863 1.18406 31.9859 0.937499 31.9859Z" fill="#C757AB"/>
</svg>
